<svg xmlns="http://www.w3.org/2000/svg" width="760" height="180" viewBox="0 0 760 180" fill="none"><path fill-rule="evenodd" clip-rule="evenodd" d="M26.54 3.7H117.59L61.59 61.24L11.74 10.02C15.67 5.99 20.99 3.72 26.54 3.7Z" fill="#2DABCC"></path><path fill-rule="evenodd" clip-rule="evenodd" d="M167.44 169.98C163.5 174.03 158.16 176.3 152.59 176.3H26.59C23.35 176.3 20.19 175.53 17.34 174.1L94.39 94.94L167.43 169.99L167.44 169.98Z" fill="#F2C608"></path><path fill-rule="evenodd" clip-rule="evenodd" d="M117.59 3.7V61.23H61.59L117.59 3.7Z" fill="#8A4BD8"></path><path fill-rule="evenodd" clip-rule="evenodd" d="M167.44 169.98L117.59 118.77V61.23L173.59 118.77V154.77C173.58 160.48 171.37 165.95 167.44 169.98Z" fill="#F48F16"></path><path fill-rule="evenodd" clip-rule="evenodd" d="M173.59 61.23V118.77L117.59 61.23H173.59Z" fill="#D84B68"></path><path fill-rule="evenodd" clip-rule="evenodd" d="M117.59 3.7H152.59C158.16 3.7 163.5 5.97 167.44 10.02C171.38 14.07 173.59 19.55 173.59 25.28V61.24H117.59V3.7Z" fill="#9D2997"></path><path fill-rule="evenodd" clip-rule="evenodd" d="M84.78 85.06L7.72999 164.23C6.32999 161.3 5.57999 158.05 5.57999 154.73V25.27C5.57999 19.55 7.78999 14.06 11.73 10.01L84.77 85.06H84.78Z" fill="#ABCC2D"></path><path d="M240.81 29.86V54.76H259.93V68.69H240.81V131.38C240.81 136.21 241.79 139.62 243.75 141.59C245.71 143.56 248.31 144.55 251.54 144.55C252.6 144.55 253.76 144.42 255.04 144.17C256.32 143.91 257.45 143.6 258.45 143.22L260.87 156.1C259.5 157.24 257.5 158.18 254.85 158.92C252.21 159.65 249.55 160.02 246.87 160.02C239.41 160.02 233.47 157.71 229.05 153.1C224.64 148.49 222.43 141.25 222.43 131.39V68.7H206.39V54.77H222.43V29.87H240.81V29.86Z" fill="white"></path><path d="M335.08 158C334.46 154.88 333.98 152.13 333.63 149.75C333.29 147.36 333.09 144.96 333.02 142.55C329.6 147.51 325.14 151.66 319.63 155C314.13 158.34 308.2 160.01 301.86 160.01C291.35 160.01 283.34 157.26 277.84 151.76C272.34 146.26 269.58 138.67 269.58 129C269.58 119.33 273.48 111.43 281.29 105.86C289.09 100.29 299.68 97.51 313.05 97.51H333.01V87.3C333.01 81.26 331.21 76.47 327.6 72.94C323.99 69.41 318.89 67.64 312.3 67.64C306.39 67.64 301.59 69.18 297.89 72.27C294.19 75.36 292.34 79.06 292.34 83.39H274.8L274.61 82.82C274.24 75.31 277.7 68.44 285.01 62.21C292.32 55.98 301.75 52.86 313.32 52.86C324.89 52.86 333.97 55.83 340.93 61.78C347.89 67.73 351.38 76.3 351.38 87.49V137.2C351.38 140.89 351.57 144.45 351.94 147.89C352.31 151.33 353 154.7 353.99 158H335.05H335.08ZM304.58 144.17C311.23 144.17 317.24 142.43 322.58 138.94C327.93 135.45 331.41 131.46 333.03 126.95V110.2H312.42C305.02 110.2 299.1 112.1 294.65 115.91C290.2 119.71 287.98 124.19 287.98 129.33C287.98 133.9 289.38 137.51 292.18 140.18C294.98 142.85 299.11 144.18 304.59 144.18L304.58 144.17Z" fill="white"></path><path d="M416.29 71.37L406.87 70.8C402.02 70.8 397.93 71.98 394.6 74.33C391.27 76.68 388.71 79.99 386.9 84.25V158.01H368.52V54.77H384.94L386.71 69.84C389.57 64.5 393.1 60.33 397.3 57.34C401.5 54.35 406.33 52.86 411.81 52.86C413.18 52.86 414.48 52.97 415.73 53.19C416.97 53.41 418 53.65 418.81 53.91L416.29 71.37Z" fill="white"></path><path d="M486.49 158C485.87 154.88 485.39 152.13 485.04 149.75C484.7 147.36 484.5 144.96 484.43 142.55C481.01 147.51 476.55 151.66 471.04 155C465.54 158.34 459.61 160.01 453.27 160.01C442.76 160.01 434.75 157.26 429.25 151.76C423.75 146.26 420.99 138.67 420.99 129C420.99 119.33 424.89 111.43 432.7 105.86C440.5 100.29 451.09 97.51 464.46 97.51H484.42V87.3C484.42 81.26 482.62 76.47 479.01 72.94C475.4 69.41 470.3 67.64 463.71 67.64C457.8 67.64 453 69.18 449.3 72.27C445.6 75.36 443.75 79.06 443.75 83.39H426.21L426.02 82.82C425.65 75.31 429.11 68.44 436.42 62.21C443.73 55.98 453.16 52.86 464.73 52.86C476.3 52.86 485.38 55.83 492.34 61.78C499.3 67.73 502.79 76.3 502.79 87.49V137.2C502.79 140.89 502.98 144.45 503.35 147.89C503.72 151.33 504.41 154.7 505.4 158H486.46H486.49ZM455.99 144.17C462.64 144.17 468.64 142.43 473.99 138.94C479.34 135.45 482.82 131.46 484.44 126.95V110.2H463.83C456.43 110.2 450.51 112.1 446.06 115.91C441.61 119.71 439.39 124.19 439.39 129.33C439.39 133.9 440.79 137.51 443.59 140.18C446.39 142.85 450.52 144.18 456 144.18L455.99 144.17Z" fill="white"></path><path d="M536.36 54.77L537.67 68.32C540.97 63.42 545.15 59.62 550.22 56.92C555.29 54.22 561.18 52.86 567.9 52.86C574.62 52.86 580.38 54.45 585.2 57.63C590.02 60.81 593.64 65.58 596.07 71.94C599.24 66.09 603.44 61.45 608.66 58.01C613.88 54.58 619.98 52.86 626.94 52.86C637.2 52.86 645.32 56.47 651.29 63.69C657.26 70.91 660.24 81.77 660.24 96.27V158H641.86V96.08C641.86 85.9 640.15 78.7 636.73 74.47C633.31 70.24 628.21 68.13 621.43 68.13C615.15 68.13 610.06 70.36 606.18 74.81C602.29 79.26 600.01 84.89 599.32 91.7V158.01H580.85V96.09C580.85 86.42 579.09 79.35 575.58 74.86C572.07 70.38 567.01 68.13 560.42 68.13C554.82 68.13 550.22 69.31 546.61 71.66C543 74.01 540.24 77.32 538.31 81.58V158.01H519.93V54.77H536.35H536.36Z" fill="white"></path><path d="M736.03 130.52C736.03 126.39 734.49 122.98 731.41 120.31C728.33 117.64 722.5 115.32 713.92 113.35C701.67 110.62 692.45 106.92 686.26 102.25C680.07 97.58 676.98 91.22 676.98 83.15C676.98 75.08 680.46 67.62 687.43 61.72C694.39 55.81 703.47 52.86 714.67 52.86C726.42 52.86 735.77 55.95 742.7 62.12C749.63 68.29 752.95 75.8 752.64 84.64L752.45 85.21H734.91C734.91 80.69 733.06 76.64 729.36 73.04C725.66 69.45 720.76 67.65 714.67 67.65C708.14 67.65 703.29 69.11 700.12 72.04C696.95 74.97 695.36 78.5 695.36 82.63C695.36 86.76 696.76 89.91 699.56 92.27C702.36 94.62 708.05 96.72 716.63 98.57C729.38 101.37 738.86 105.17 745.08 109.97C751.3 114.77 754.41 121.21 754.41 129.29C754.41 138.45 750.79 145.86 743.54 151.52C736.3 157.18 726.83 160.01 715.14 160.01C702.27 160.01 692.13 156.67 684.73 149.99C677.33 143.31 673.82 135.52 674.19 126.61L674.38 126.04H691.92C692.23 132.69 694.66 137.54 699.2 140.61C703.74 143.68 709.06 145.21 715.15 145.21C721.68 145.21 726.8 143.86 730.49 141.16C734.19 138.46 736.04 134.91 736.04 130.52H736.03Z" fill="white"></path></svg>