<svg version="1.1" xmlns="http://www.w3.org/2000/svg" xmlns:xlink="http://www.w3.org/1999/xlink" width="999.26866" height="191.08449" viewBox="0,0,999.26866,191.08449"><g transform="translate(259.63433,-84.45776)"><g data-paper-data="{&quot;isPaintingLayer&quot;:true}" fill-rule="nonzero" stroke="none" stroke-width="1" stroke-linecap="butt" stroke-linejoin="miter" stroke-miterlimit="10" stroke-dasharray="" stroke-dashoffset="0" style="mix-blend-mode: normal"><path d="M683.55477,84.45776c31.01148,0 56.07956,25.0783 56.07956,56.0592v135.02529h-190.99273v-191.08449" fill="#e9262a"/><path d="M-167.68056,132.77937c4.02679,-8.62449 10.24542,-8.29829 10.24542,-8.29829l26.61768,0.2345l-49.4532,114.70778l-33.93726,-0.21409l-45.42641,-113.85143l29.01339,-0.84618c4.91369,0.20387 7.83949,6.73854 7.83949,6.73854l26.74003,71.51398c0,0 24.25252,-61.3807 28.36089,-69.98482" fill="#2f378d"/><path d="M-81.86381,124.57285l0.16312,114.17768h-20.65394c0,0 -10.90803,-0.61168 -10.85707,-12.91637c0.04078,-12.25369 -0.03058,-101.26131 -0.03058,-101.26131z" fill="#2f378d"/><path d="M18.52081,124.75633c0,0 45.21233,-4.02679 44.1419,45.23271v33.41739c0,0 -0.1835,33.07076 -40.31899,36.51647l-41.1957,0.1427c0,0 -35.25238,4.28167 -36.52667,-34.32467c0,0 -2.03888,-39.0345 40.80834,-35.87421h45.50796c0,0 5.21954,-19.43057 -20.80685,-20.22573h-46.72107c0,0 -9.07309,-2.07969 -10.07213,-9.31773c-0.99905,-7.28904 -0.18348,-15.5669 -0.18348,-15.5669zM12.54686,214.93634c21.35736,-0.38737 17.97281,-20.03206 17.97281,-20.03206h-43.87687c-8.72644,-0.21408 -9.22595,9.37887 -9.22595,9.37887c-0.44855,11.73378 11.41777,10.54105 11.41777,10.54105z" fill="#2f378d"/><path d="M187.77903,124.52188v11.65224c-0.30583,11.7542 -12.79403,13.74211 -12.79403,13.74211h-31.19497c-28.45267,0.1937 -27.30068,31.59255 -27.30068,31.59255c-1.15195,34.1106 27.49438,33.64164 27.49438,33.64164h31.18477c10.47987,0.50972 12.61052,10.21484 12.61052,10.21484v14.37415h-57.44566c-46.68033,-2.56901 -46.93517,-58.30198 -46.93517,-58.30198c-1.06021,-57.47624 47.30216,-56.91553 47.30216,-56.91553z" fill="#2f378d"/><path d="M263.87027,122.57475c0,0 44.60064,-3.78212 56.82375,40.09471c0,0 14.91448,51.89987 -25.51664,71.68727c0,0 -51.58384,18.68635 -78.89472,-9.593c0,0 -20.74568,-15.80135 -13.07947,-60.96268l0.07136,-0.14274c0.35679,-2.68113 13.16098,-40.92043 55.682,-41.20588l4.91375,0.12235M277.44926,213.48872c19.14514,-11.87652 12.07021,-43.11225 12.07021,-43.11225c-5.8312,-26.41378 -26.88273,-24.12005 -26.88273,-24.12005l-2.35493,-0.09174c-20.15439,0.16312 -26.18951,23.19235 -26.37301,24.79289v0.07133c-3.6598,27.18856 6.20841,36.69998 6.20841,36.69998c12.88579,17.01452 37.33205,5.75987 37.33205,5.75987" fill="#2f378d"/><path d="M504.96864,124.8481v114.77914l-20.77626,0.06116c0,0 -11.29545,-0.80534 -11.04058,-14.2722l0.41801,-64.27591l-32.99939,78.5481h-34.47759l-31.05226,-78.40537v68.04785c0,0 -1.34566,10.40854 -11.30561,10.40854l-20.74568,0.1427v-114.17768h45.41621c0,0 7.1667,-0.48929 11.01,11.12214l24.84383,66.38616l29.26823,-71.97271c0,0 1.73307,-6.32055 12.30469,-6.39191z" fill="#2f378d"/><path d="M614.18163,124.03253v118.14331h-27.64731v-90.86299h-18.65583v-27.28032" fill="#ffffff"/><path d="M695.79825,132.06575c6.64678,6.18805 9.98037,13.67073 9.98037,22.42777c0,10.59203 -4.16951,18.3296 -12.25371,23.40644c10.93862,5.95352 16.38244,15.33246 16.38244,27.92256c0,6.53462 -1.74324,12.83477 -5.18896,18.74755c-3.45591,5.99432 -8.57353,10.70411 -14.94506,14.41491c-6.44286,3.42533 -13.55858,5.18898 -21.67335,5.18898h-0.34663c-12.70228,-0.11212 -22.80494,-4.03703 -30.28765,-11.48915c-7.94146,-7.73757 -11.86632,-16.41302 -11.86632,-26.13851c0,-5.23996 1.53933,-10.68375 4.65883,-16.41302c2.58937,-4.9545 6.606,-9.12405 11.84596,-12.23333c-8.18612,-5.21954 -12.35565,-12.65128 -12.46778,-22.78456c0,-8.66528 3.45591,-16.27034 10.35754,-23.04963c6.85065,-6.7487 16.01547,-10.08229 27.41284,-10.08229h0.6932c11.40757,0.13254 20.57236,3.44572 27.69828,10.08229zM677.04051,214.27368c2.92578,-2.37528 4.48554,-5.95354 4.59767,-10.44928c0,-3.93503 -1.30488,-7.26862 -3.89425,-9.84783c-2.52821,-2.75249 -5.7293,-4.18991 -9.64394,-4.33262h-0.34663c-3.80252,0 -7.02395,1.43742 -9.63374,4.33262c-2.60979,2.8952 -3.79234,5.70888 -3.54768,9.60316c0.24467,3.89428 1.69229,7.21766 4.13895,9.84783c2.41608,2.73211 5.49479,4.02679 9.04244,4.02679h0.34663c3.56804,0 6.55504,-1.06019 8.94054,-3.18065zM676.21477,165.56468c2.45687,-2.36512 3.6598,-5.25013 3.56804,-8.64488c-0.16312,-4.18991 -1.4578,-7.13613 -3.93505,-9.03228c-2.14084,-1.78403 -4.74041,-2.64033 -7.74777,-2.49763h-0.6932c-3.0787,0.22431 -5.7395,1.40678 -7.84975,3.55784c-2.12046,2.0185 -3.18067,4.5467 -3.18067,7.58466c-0.11212,3.7108 0.83596,6.66716 2.936,8.94054c2.18162,2.23258 5.01568,3.40495 8.44101,3.54766h0.34663c3.0889,0 5.82104,-1.20295 8.11478,-3.45591z" fill="#ffffff"/></g></g></svg>