<svg xmlns="http://www.w3.org/2000/svg" viewBox="0 0 1840 1150" width="1840" height="1150" font-family="ui-monospace, SFMono-Regular, Menlo, Consolas, monospace">
<defs>
<marker id="ah" viewBox="0 0 10 10" refX="9" refY="5" markerWidth="7" markerHeight="7" orient="auto-start-reverse"><path d="M0,0 L10,5 L0,10 z" fill="#111"/></marker>
<marker id="ahm" viewBox="0 0 10 10" refX="9" refY="5" markerWidth="7" markerHeight="7" orient="auto-start-reverse"><path d="M0,0 L10,5 L0,10 z" fill="#7A7A75"/></marker>
</defs>
<rect width="100%" height="100%" fill="#F7F7F5"/>
<text x="60" y="52" font-size="21" font-weight="700" letter-spacing="1" fill="#111">AI SUPPORT RESOLUTION AGENT — ACTUAL REQUEST PATH</text>
<text x="60" y="80" font-size="12.5" letter-spacing="0.8" fill="#7A7A75">PRIORITY 0–6 ROUTING · SAFETY IS AN INPUT GATE · RAG IS THE P6 FALLBACK, NOT THE DEFAULT</text>

<rect x="60" y="150" width="250" height="104" fill="#fff" stroke="#111" stroke-width="2"/>
<text x="185" y="196" text-anchor="middle" font-size="17" font-weight="700" letter-spacing="1.5" fill="#111">USER QUERY</text>
<text x="185" y="221" text-anchor="middle" font-size="12" letter-spacing="0.6" fill="#7A7A75">RAW INPUT</text>

<rect x="368" y="150" width="250" height="104" fill="#fff" stroke="#111" stroke-width="2"/>
<text x="493" y="192" text-anchor="middle" font-size="16" font-weight="700" letter-spacing="1.2" fill="#111">SAFETY GATE</text>
<text x="493" y="215" text-anchor="middle" font-size="11.5" letter-spacing="0.5" fill="#7A7A75">PRIORITY 0 · PROMPT-INJECTION</text>
<text x="493" y="234" text-anchor="middle" font-size="10.5" letter-spacing="0.4" fill="#7A7A75">REGEX · PRE-LLM · REFUSES EARLY</text>
<circle cx="493" cy="134" r="7" fill="#E1512D"/><text x="493" y="116" text-anchor="middle" font-size="13" letter-spacing="1" fill="#E1512D">F-03</text>

<rect x="676" y="150" width="250" height="104" fill="#fff" stroke="#111" stroke-width="2"/>
<text x="801" y="192" text-anchor="middle" font-size="16" font-weight="700" letter-spacing="1.2" fill="#111">PERCEIVE</text>
<text x="801" y="215" text-anchor="middle" font-size="11.5" letter-spacing="0.5" fill="#7A7A75">PRIORITY 1 · LLM SAFETY CLASS</text>
<text x="801" y="234" text-anchor="middle" font-size="10.5" letter-spacing="0.4" fill="#7A7A75">+ INTENT · GPT-4O-MINI</text>
<circle cx="801" cy="134" r="7" fill="#E1512D"/><text x="801" y="116" text-anchor="middle" font-size="13" letter-spacing="1" fill="#E1512D">F-03</text>
<text x="801" y="279" text-anchor="middle" font-size="11.5" letter-spacing="0.6" fill="#E1512D">PII MASKED BEFORE ANY LLM CALL</text>

<rect x="984" y="150" width="250" height="104" fill="#fff" stroke="#111" stroke-width="2"/>
<text x="1109" y="196" text-anchor="middle" font-size="17" font-weight="700" letter-spacing="1.5" fill="#111">MEMORY</text>
<text x="1109" y="221" text-anchor="middle" font-size="11.5" letter-spacing="0.5" fill="#7A7A75">SESSION ENTITIES · 'IT'→ORD123</text>

<rect x="1292" y="150" width="250" height="104" fill="#fff" stroke="#111" stroke-width="2"/>
<text x="1417" y="196" text-anchor="middle" font-size="17" font-weight="700" letter-spacing="1.5" fill="#111">ROUTE</text>
<text x="1417" y="221" text-anchor="middle" font-size="11.5" letter-spacing="0.5" fill="#7A7A75">PRIORITY 0–6 LADDER</text>

<line x1="310" y1="202" x2="362" y2="202" stroke="#111" stroke-width="2" marker-end="url(#ah)"/>
<line x1="618" y1="202" x2="670" y2="202" stroke="#111" stroke-width="2" marker-end="url(#ah)"/>
<line x1="926" y1="202" x2="978" y2="202" stroke="#111" stroke-width="2" marker-end="url(#ah)"/>
<line x1="1234" y1="202" x2="1286" y2="202" stroke="#111" stroke-width="2" marker-end="url(#ah)"/>

<line x1="1417" y1="254" x2="1417" y2="340" stroke="#111" stroke-width="2"/>
<line x1="801" y1="340" x2="1417" y2="340" stroke="#111" stroke-width="2"/>
<line x1="801" y1="340" x2="801" y2="396" stroke="#111" stroke-width="2" marker-end="url(#ah)"/>
<line x1="1109" y1="340" x2="1109" y2="396" stroke="#111" stroke-width="2" marker-end="url(#ah)"/>
<line x1="1417" y1="340" x2="1417" y2="396" stroke="#111" stroke-width="2" marker-end="url(#ah)"/>

<rect x="676" y="400" width="250" height="104" fill="#fff" stroke="#111" stroke-width="2"/>
<text x="801" y="440" text-anchor="middle" font-size="16" font-weight="700" letter-spacing="1.2" fill="#111">TOOLS · 4</text>
<text x="801" y="464" text-anchor="middle" font-size="11.5" letter-spacing="0.5" fill="#7A7A75">PRIORITY 6 · ENTITY-KEYED</text>
<text x="801" y="486" text-anchor="middle" font-size="10" letter-spacing="0.3" fill="#7A7A75">ORDER·PAYMENT·REFUND·CANCEL</text>

<rect x="984" y="400" width="250" height="104" fill="#fff" stroke="#111" stroke-width="2"/>
<text x="1109" y="440" text-anchor="middle" font-size="16" font-weight="700" letter-spacing="1.2" fill="#111">RAG</text>
<text x="1109" y="464" text-anchor="middle" font-size="11.5" letter-spacing="0.5" fill="#7A7A75">PRIORITY 6 · FALLBACK</text>
<text x="1109" y="486" text-anchor="middle" font-size="10" letter-spacing="0.3" fill="#7A7A75">FAISS POLICY KB</text>

<rect x="1292" y="400" width="250" height="104" fill="#fff" stroke="#111" stroke-width="2"/>
<text x="1417" y="440" text-anchor="middle" font-size="16" font-weight="700" letter-spacing="1.2" fill="#111">ESCALATE / OOS</text>
<text x="1417" y="464" text-anchor="middle" font-size="11.5" letter-spacing="0.5" fill="#7A7A75">PRIORITY 2–5</text>
<text x="1417" y="486" text-anchor="middle" font-size="10" letter-spacing="0.3" fill="#7A7A75">CANONICAL TEMPLATES</text>
<line x1="801" y1="504" x2="801" y2="600" stroke="#111" stroke-width="2"/>
<line x1="1109" y1="504" x2="1109" y2="600" stroke="#111" stroke-width="2"/>
<line x1="801" y1="600" x2="1109" y2="600" stroke="#111" stroke-width="2"/>
<line x1="801" y1="600" x2="801" y2="676" stroke="#111" stroke-width="2" marker-end="url(#ah)"/>
<line x1="1417" y1="504" x2="1417" y2="676" stroke="#E1512D" stroke-width="2" stroke-dasharray="8 5" marker-end="url(#ah)"/>
<text x="1566" y="576" font-size="11.5" letter-spacing="0.5" fill="#E1512D">CANONICAL TEMPLATE —</text>
<text x="1566" y="596" font-size="11.5" letter-spacing="0.5" fill="#E1512D">SKIPS ACT + ADAPT</text>
<rect x="984" y="680" width="250" height="104" fill="#fff" stroke="#111" stroke-width="2"/>
<text x="1109" y="726" text-anchor="middle" font-size="17" font-weight="700" letter-spacing="1.5" fill="#111">ADAPT</text>
<text x="1109" y="751" text-anchor="middle" font-size="11.5" letter-spacing="0.5" fill="#7A7A75">4-DIM POLICY RESTYLE</text>
<rect x="676" y="680" width="250" height="104" fill="#fff" stroke="#111" stroke-width="2"/>
<text x="801" y="726" text-anchor="middle" font-size="17" font-weight="700" letter-spacing="1.5" fill="#111">ACT</text>
<text x="801" y="751" text-anchor="middle" font-size="11.5" letter-spacing="0.5" fill="#7A7A75">LLM · GROUNDED RESPONSE</text>
<circle cx="801" cy="664" r="7" fill="#E1512D"/><text x="880" y="669" text-anchor="middle" font-size="13" letter-spacing="1" fill="#E1512D">F-02</text>

<rect x="1292" y="680" width="250" height="104" fill="#fff" stroke="#111" stroke-width="2"/>
<text x="1417" y="726" text-anchor="middle" font-size="17" font-weight="700" letter-spacing="1.5" fill="#111">RESPONSE</text>
<text x="1417" y="751" text-anchor="middle" font-size="11.5" letter-spacing="0.5" fill="#7A7A75">REAL IDS RESTORED</text>

<line x1="926" y1="732" x2="978" y2="732" stroke="#111" stroke-width="2" marker-end="url(#ah)"/>
<line x1="1234" y1="732" x2="1286" y2="732" stroke="#111" stroke-width="2" marker-end="url(#ah)"/>
<line x1="1417" y1="784" x2="1417" y2="896" stroke="#111" stroke-width="2" marker-end="url(#ah)"/>

<rect x="1292" y="900" width="250" height="104" fill="#fff" stroke="#111" stroke-width="2"/>
<text x="1417" y="946" text-anchor="middle" font-size="17" font-weight="700" letter-spacing="1.5" fill="#111">LOGS</text>
<text x="1417" y="971" text-anchor="middle" font-size="11.5" letter-spacing="0.4" fill="#7A7A75">MASK_DICT BEFORE DISK</text>
<circle cx="1268" cy="952" r="7" fill="#E1512D"/><text x="1225" y="930" text-anchor="middle" font-size="13" letter-spacing="1" fill="#E1512D">F-01</text>

<rect x="60" y="900" width="430" height="104" fill="#fff" stroke="#111" stroke-width="2" stroke-dasharray="7 5"/>
<text x="275" y="946" text-anchor="middle" font-size="17" font-weight="700" letter-spacing="1.5" fill="#111">EVAL HARNESS · 62 / 62</text>
<text x="275" y="971" text-anchor="middle" font-size="11.5" letter-spacing="0.4" fill="#7A7A75">PHASE 9 → CALLS PHASE 8 run_query()</text>
<path d="M275,900 L275,850 L185,850 L185,262" fill="none" stroke="#7A7A75" stroke-width="2" stroke-dasharray="6 5" marker-end="url(#ahm)"/>
<text x="300" y="838" font-size="11.5" letter-spacing="0.5" fill="#7A7A75">EXERCISES THE DEPLOYED PATH — NOT A PARALLEL ONE  (F-01'S LESSON)</text>

<text x="60" y="1062" font-size="12" letter-spacing="0.5" fill="#7A7A75">LANGSMITH = TRACING ONLY (@traceable IN phase8_deploy/runner.py) — IT DOES NOT RUN THE TESTS.</text>
<text x="60" y="1090" font-size="12" letter-spacing="0.5" fill="#7A7A75">F-01 PII IN LOGS (CAUGHT BY EVAL)  ·  F-02 ENTITY-NOUN CONFUSION IN ACT (MISSED BY EVAL)  ·  F-03 INJECTION BYPASS — BOTH INPUT-SIDE SAFETY LAYERS (MISSED BY BOTH)</text>
<text x="60" y="1118" font-size="12" letter-spacing="0.5" fill="#7A7A75">PII IS 3-LAYER: MASKED BEFORE THE LLM  ·  REAL IDS RESTORED FOR THE USER  ·  MASKED AGAIN BEFORE DISK.</text>
</svg>
